<svg class="hidden md:flex" width="173" height="34" viewbox="0 0 173 34" fill="none" xmlns="http://www.w3.org/2000/svg">
    <g clip-path="url(#clip0_741_12604)">
      <path d="M23.8094 4.93307L22.0267 8.01913" stroke="white" stroke-width="1.12997" stroke-miterlimit="10"></path>
      <path d="M28.883 10.0044L25.8006 11.7834" stroke="white" stroke-width="1.12997" stroke-miterlimit="10"></path>
      <path d="M30.7422 16.9309H27.1877" stroke="white" stroke-width="1.12997" stroke-miterlimit="10"></path>
      <path d="M28.9124 23.8613L25.8227 22.075" stroke="white" stroke-width="1.12997" stroke-miterlimit="10"></path>
      <path d="M23.8396 28.933L22.0642 25.8542" stroke="white" stroke-width="1.12997" stroke-miterlimit="10"></path>
      <path d="M16.9075 30.7918V27.2483" stroke="white" stroke-width="1.12997" stroke-miterlimit="10"></path>
      <path d="M11.753 25.8831L9.95215 28.9982" stroke="white" stroke-width="1.12997" stroke-miterlimit="10"></path>
      <path d="M7.97973 22.1368L4.87915 23.9267" stroke="white" stroke-width="1.12997" stroke-miterlimit="10"></path>
      <path d="M6.57748 17H3.02307" stroke="white" stroke-width="1.12997" stroke-miterlimit="10"></path>
      <path d="M7.95623 11.7979L4.84839 10.0044" stroke="white" stroke-width="1.12997" stroke-miterlimit="10"></path>
      <path d="M11.709 8.03365L9.91913 4.93307" stroke="white" stroke-width="1.12997" stroke-miterlimit="10"></path>
      <path d="M16.8481 6.64306V3.07776" stroke="white" stroke-width="1.12997" stroke-miterlimit="10"></path>
      <path d="M28.8057 5.18707L27.3353 6.65023" stroke="white" stroke-width="0.373251" stroke-miterlimit="10"></path>
      <path d="M33.7728 12.5384L31.1224 13.2391" stroke="white" stroke-width="0.373251" stroke-miterlimit="10"></path>
      <path d="M33.5795 21.5125L31.107 20.8445" stroke="white" stroke-width="0.373251" stroke-miterlimit="10"></path>
      <path d="M28.748 28.8712L27.3066 27.4153" stroke="white" stroke-width="0.373251" stroke-miterlimit="10"></path>
      <path d="M21.4204 33.8629L20.7233 31.2161" stroke="white" stroke-width="0.373251" stroke-miterlimit="10"></path>
      <path d="M13.1067 31.2123L12.4423 33.6666" stroke="white" stroke-width="0.373251" stroke-miterlimit="10"></path>
      <path d="M6.51702 27.4044L5.0575 28.8567" stroke="white" stroke-width="0.373251" stroke-miterlimit="10"></path>
      <path d="M2.72419 20.8409L0.0484009 21.5489" stroke="white" stroke-width="0.373251" stroke-miterlimit="10"></path>
      <path d="M2.71027 13.2427L0.237793 12.5747" stroke="white" stroke-width="0.373251" stroke-miterlimit="10"></path>
      <path d="M6.54994 6.59926L5.07953 5.12158" stroke="white" stroke-width="0.373251" stroke-miterlimit="10"></path>
      <path d="M13.1254 2.81672L12.4138 0.137299" stroke="white" stroke-width="0.373251" stroke-miterlimit="10"></path>
      <path d="M21.3927 0.333527L20.7211 2.82416" stroke="white" stroke-width="0.373251" stroke-miterlimit="10"></path>
    </g>
    <g clip-path="url(#clip1_741_12604)">
      <path d="M153.147 19.9341V21.9369H150.887V19.9379L150.898 19.9354H150.905L153.147 19.9341Z" fill="white"></path>
      <path d="M172.783 14.0884C172.355 12.7315 171.267 12.1395 169.277 12.0706H163.187C161.197 12.1395 160.109 12.7315 159.681 14.0884C159.531 14.5591 159.462 15.1224 159.462 15.7883V18.2105C159.462 18.8877 159.533 19.4597 159.689 19.9367C160.152 21.3649 161.358 21.9357 163.595 21.9357H168.869C171.106 21.9357 172.311 21.3649 172.776 19.9367C172.93 19.4597 173.001 18.8877 173.001 18.2105V15.7883C173.001 15.1224 172.932 14.5591 172.783 14.0884ZM163.68 19.9367C162.158 19.9367 161.715 19.496 161.715 18.0064V16.0061C161.715 14.5115 162.157 14.0884 163.68 14.0884H168.783C170.306 14.0884 170.748 14.5115 170.748 16.0061V18.0064C170.748 19.496 170.306 19.9367 168.783 19.9367H163.68Z" fill="white"></path>
      <path d="M157.407 12.0643V21.9357H155.148V12.0818L155.159 12.0706L155.166 12.0643H157.407Z" fill="white"></path>
      <path d="M97.0601 12.0643C94.0759 12.0643 92.9268 13.0795 92.9268 15.7895V18.2117C92.9268 20.9217 94.0759 21.9369 97.0601 21.9369H104.791V19.9366H97.1465C95.6244 19.9366 95.1812 19.4972 95.1812 18.0064V16.0061C95.1812 14.5102 95.6231 14.0884 97.1465 14.0884H104.791V12.0706H97.0601V12.0643Z" fill="white"></path>
      <path d="M73.3044 12.0643C75.2559 12.0643 76.8406 13.5777 76.8406 15.4428V21.9369H74.5937V18.6873H66.6851V21.9369H64.4382V15.4428C64.4369 13.5777 66.0216 12.0643 67.9731 12.0643H73.3031H73.3044ZM74.5937 15.4428C74.5937 14.7631 74.0166 14.2111 73.3044 14.2111H67.9744C67.2621 14.2111 66.6851 14.7618 66.6851 15.4428V16.6745H74.5937V15.4428Z" fill="white"></path>
      <path d="M125.529 12.0643C122.545 12.0643 121.396 13.0795 121.396 15.7895V18.2117C121.396 20.9217 122.545 21.9369 125.529 21.9369H133.666V19.9779H125.578C124.042 19.9779 123.613 19.5385 123.613 18.0602V17.8199H133.578V16.0837H123.613V15.9422C123.613 14.4639 124.042 14.0246 125.578 14.0246H133.666V12.0643H125.529Z" fill="white"></path>
      <path d="M138.277 12.0643C136.49 12.0643 135.668 12.9969 135.668 14.3638V15.3902C135.668 16.9386 136.553 17.8124 138.253 17.8124H145.855C146.372 17.8124 146.622 18.0815 146.622 18.6047V19.1855C146.622 19.6775 146.402 19.9779 145.842 19.9779H135.686V21.9369H146.272C148.058 21.9369 148.882 21.0043 148.882 19.6374V18.5121C148.882 16.9637 147.997 16.0899 146.297 16.0899H138.695C138.179 16.0899 137.928 15.8208 137.928 15.2976V14.8157C137.928 14.3237 138.149 14.0233 138.707 14.0233H148.496V12.0643H138.277Z" fill="white"></path>
      <path d="M90.9246 12.0643H78.7175V14.0821H83.6907V21.9369H85.9501V14.0821H90.9233V12.0643H90.9246Z" fill="white"></path>
      <path d="M106.806 12.0706C106.806 12.0706 106.794 12.0768 106.794 12.0831V21.9357H109.053V17.8762H117.116V21.9357H119.375V12.0643H117.116V16.0411H109.053V12.0643H106.811L106.805 12.0706H106.806Z" fill="white"></path>
      <path d="M44.377 12.0643H44.2256L47.2961 21.9357H50.6734L53.4736 14.166C53.4886 14.0947 53.5336 14.0671 53.5937 14.0671H53.6538C53.7289 14.0671 53.759 14.0947 53.774 14.166L56.5091 21.9357H59.8863L61.5887 16.6257L63.261 12.0643H60.8852C60.7801 12.0643 60.8038 12.0643 60.8038 12.0643L58.2891 19.834C58.259 19.9191 58.229 19.9329 58.1689 19.9329H58.0788C58.0187 19.9329 57.9886 19.9191 57.9586 19.834L55.4864 12.883C55.2786 12.2909 54.9644 12.0643 54.3085 12.0643H52.8314C52.2944 12.0643 51.9514 12.2483 51.7274 12.883L49.3115 19.8352C49.2814 19.9204 49.2514 19.9341 49.1913 19.9341H49.1162C49.0561 19.9341 49.0111 19.9204 48.996 19.8352L46.6815 12.0643H44.377Z" fill="white"></path>
    </g>
    <defs>
      <clippath id="clip0_741_12604">
        <rect width="33.8195" height="33.8195" fill="white" transform="translate(0 0.09021)"></rect>
      </clippath>
      <clippath id="clip1_741_12604">
        <rect width="128.774" height="9.87135" fill="white" transform="translate(44.2256 12.0643)"></rect>
      </clippath>
    </defs>
  </svg><svg class="md:hidden" width="112" height="9" viewbox="0 0 112 9" fill="none" xmlns="http://www.w3.org/2000/svg">
    <g clip-path="url(#clip0_741_11063)">
      <path d="M94.0982 6.73251V8.4459H92.1653V6.73573L92.1749 6.73358H92.1803L94.0982 6.73251Z" fill="white"></path>
      <path d="M110.897 1.73161C110.531 0.570789 109.6 0.0642688 107.898 0.00537109H102.688C100.985 0.0642688 100.055 0.570789 99.6884 1.73161C99.5599 2.13425 99.501 2.61614 99.501 3.18585V5.25797C99.501 5.83731 99.562 6.3267 99.6948 6.7347C100.091 7.95656 101.123 8.44487 103.037 8.44487H107.549C109.462 8.44487 110.493 7.95656 110.891 6.7347C111.022 6.3267 111.083 5.83731 111.083 5.25797V3.18585C111.083 2.61614 111.025 2.13425 110.897 1.73161ZM103.11 6.7347C101.808 6.7347 101.429 6.35775 101.429 5.08342V3.37218C101.429 2.09356 101.807 1.73161 103.11 1.73161H107.475C108.778 1.73161 109.156 2.09356 109.156 3.37218V5.08342C109.156 6.35775 108.778 6.7347 107.475 6.7347H103.11Z" fill="white"></path>
      <path d="M97.7435 -3.05176e-05V8.44483H95.8105V0.0149616L95.8202 0.00532382L95.8255 -3.05176e-05L97.7435 -3.05176e-05Z" fill="white"></path>
      <path d="M46.1168 -3.05176e-05C43.5639 -3.05176e-05 42.5808 0.868442 42.5808 3.18687V5.259C42.5808 7.57742 43.5639 8.4459 46.1168 8.4459H52.7305V6.73465H46.1907C44.8885 6.73465 44.5094 6.35878 44.5094 5.08337V3.37213C44.5094 2.09244 44.8875 1.73156 46.1907 1.73156H52.7305V0.00532382H46.1168V-3.05176e-05Z" fill="white"></path>
      <path d="M25.7939 -3.05176e-05C27.4634 -3.05176e-05 28.8191 1.29465 28.8191 2.89024V8.4459H26.8969V5.66593H20.1312V8.4459H18.209V2.89024C18.2079 1.29465 19.5636 -3.05176e-05 21.2331 -3.05176e-05H25.7929H25.7939ZM26.8969 2.89024C26.8969 2.30876 26.4033 1.83651 25.7939 1.83651H21.2342C20.6249 1.83651 20.1312 2.30769 20.1312 2.89024V3.94397H26.8969V2.89024Z" fill="white"></path>
      <path d="M70.472 -3.05176e-05C67.9191 -3.05176e-05 66.936 0.868442 66.936 3.18687V5.259C66.936 7.57742 67.9191 8.4459 70.472 8.4459H77.4327V6.76999H70.5138C69.1998 6.76999 68.8325 6.39411 68.8325 5.12942V4.92381H77.3577V3.43852H68.8325V3.31751C68.8325 2.05282 69.1998 1.67695 70.5138 1.67695H77.4327V-3.05176e-05H70.472Z" fill="white"></path>
      <path d="M81.3772 -3.05176e-05C79.8491 -3.05176e-05 79.1455 0.797765 79.1455 1.96715V2.84526C79.1455 4.16992 79.9026 4.91739 81.3568 4.91739H87.8602C88.3025 4.91739 88.5167 5.14763 88.5167 5.59525V6.09213C88.5167 6.51298 88.3282 6.76999 87.8495 6.76999H79.1605V8.4459H88.2168C89.7449 8.4459 90.4496 7.6481 90.4496 6.47871V5.516C90.4496 4.19134 89.6925 3.44388 88.2382 3.44388H81.7349C81.2937 3.44388 81.0784 3.21364 81.0784 2.76602V2.35373C81.0784 1.93288 81.268 1.67588 81.7456 1.67588H90.1197V-3.05176e-05H81.3772Z" fill="white"></path>
      <path d="M40.8679 -3.05176e-05H30.4248V1.72621H34.6794V8.4459H36.6123V1.72621H40.8668V-3.05176e-05H40.8679Z" fill="white"></path>
      <path d="M54.4546 0.00532382C54.4546 0.00532382 54.4438 0.0106782 54.4438 0.0160325V8.44483H56.3768V4.972H63.2742V8.44483H65.2071V-3.05176e-05H63.2742V3.40211H56.3768V-3.05176e-05H54.4588L54.4535 0.00532382H54.4546Z" fill="white"></path>
      <path d="M1.04681 0H0.917236L3.54407 8.44486H6.43327L8.8288 1.79799C8.84165 1.73695 8.8802 1.71339 8.9316 1.71339H8.98301C9.04726 1.71339 9.07296 1.73695 9.08581 1.79799L11.4257 8.44486H14.3149L15.7712 3.90224L17.2019 0H15.1694C15.0794 0 15.0998 0 15.0998 0L12.9484 6.64687C12.9227 6.71969 12.897 6.73147 12.8456 6.73147H12.7685C12.7171 6.73147 12.6914 6.71969 12.6657 6.64687L10.5508 0.700347C10.373 0.193827 10.1042 0 9.54307 0H8.27945C7.82004 0 7.52663 0.157417 7.33494 0.700347L5.26817 6.64794C5.24247 6.72076 5.21677 6.73254 5.16536 6.73254H5.10111C5.04971 6.73254 5.01116 6.72076 4.99831 6.64794L3.01828 0H1.04681Z" fill="white"></path>
    </g>
    <defs>
      <clippath id="clip0_741_11063">
        <rect width="110.165" height="8.44486" fill="white" transform="translate(0.917236)"></rect>
      </clippath>
    </defs>
  </svg>